####
#
# OBJ File Generated by Meshlab
#
####
# Object reskin_palm_pad.obj
#
# Vertices: 60
# Faces: 116
#
####
mtllib ./reskin_palm_pad.obj.mtl

vn 0.145758 -3.134815 3.048664
v 88.888000 0.114000 0.000000
vn 3.110232 -0.418130 3.048794
v 91.880997 2.857000 0.000000
vn -0.145689 -3.134820 3.048710
v 3.931000 0.114000 0.000000
vn -3.110161 -0.418530 3.048564
v 0.458000 3.296000 0.000000
vn -3.012290 -0.843308 2.956216
v 0.573739 2.660970 0.000000
vn 0.577333 -3.074365 2.956191
v 89.441963 0.165626 0.000000
vn 1.134182 -2.915246 2.956184
v 89.976921 0.318488 0.000000
vn 1.652151 -2.656207 2.956194
v 90.474525 0.567346 0.000000
vn 2.113495 -2.306114 2.956178
v 90.917732 0.903670 0.000000
vn 2.502389 -1.876991 2.956204
v 91.291336 1.315931 0.000000
vn 2.805510 -1.383522 2.956173
v 91.582550 1.790000 0.000000
vn 3.012481 -0.842610 2.956188
v 91.781372 2.309627 0.000000
vn 0.136907 3.135615 3.054325
v 61.488998 37.282001 0.000000
vn 3.126336 0.033663 2.945584
v 94.416000 31.841999 0.000000
vn 0.575517 3.073136 2.945871
v 92.098000 34.604000 0.000000
vn 2.938937 0.925574 2.748932
v 94.307999 32.831001 0.000000
vn 2.360809 1.979943 2.748696
v 93.830002 33.702999 0.000000
vn 1.421995 2.733207 2.748115
v 93.054001 34.326000 0.000000
vn -0.136902 3.135614 3.054326
v 30.889000 37.282001 0.000000
vn -3.126335 0.033640 2.945572
v -2.039000 31.841999 0.000000
vn -0.575937 3.073013 2.945587
v 0.279000 34.604000 0.000000
vn -2.938269 0.926789 2.748047
v -1.931000 32.831001 0.000000
vn -2.360142 1.981159 2.749580
v -1.452000 33.702999 0.000000
vn -1.422420 2.733083 2.748396
v -0.676000 34.326000 0.000000
vn -2.805244 -1.384074 2.956216
v 0.804542 2.058154 0.000000
vn -2.502074 -1.877413 2.956217
v 1.142500 1.508206 0.000000
vn -2.113168 -2.306421 2.956216
v 1.576031 1.029971 0.000000
vn -1.651851 -2.656397 2.956217
v 2.090282 0.639837 0.000000
vn -1.133932 -2.915348 2.956217
v 2.667630 0.351173 0.000000
vn -0.577158 -3.074401 2.956216
v 3.288292 0.173868 0.000000
vn 0.145758 -3.134814 -3.048664
v 88.888000 0.114000 -1.500000
vn -0.145689 -3.134822 -3.048710
v 3.931000 0.114000 -1.500000
vn 3.110231 -0.418130 -3.048794
v 91.880997 2.857000 -1.500000
vn 3.012481 -0.842610 -2.956188
v 91.781372 2.309627 -1.500000
vn 2.805510 -1.383522 -2.956173
v 91.582550 1.790000 -1.500000
vn 2.502389 -1.876991 -2.956204
v 91.291336 1.315931 -1.500000
vn 2.113495 -2.306114 -2.956178
v 90.917732 0.903670 -1.500000
vn 1.652150 -2.656207 -2.956194
v 90.474525 0.567346 -1.500000
vn 1.134182 -2.915246 -2.956184
v 89.976921 0.318488 -1.500000
vn 0.577333 -3.074365 -2.956191
v 89.441963 0.165626 -1.500000
vn 3.126337 0.033663 -2.945584
v 94.416000 31.841999 -1.500000
vn 2.938937 0.925574 -2.748932
v 94.307999 32.831001 -1.500000
vn 2.360809 1.979942 -2.748696
v 93.830002 33.702999 -1.500000
vn 1.421995 2.733207 -2.748115
v 93.054001 34.326000 -1.500000
vn 0.575517 3.073136 -2.945871
v 92.098000 34.604000 -1.500000
vn 0.136907 3.135614 -3.054325
v 61.488998 37.282001 -1.500000
vn -0.136903 3.135615 -3.054326
v 30.889000 37.282001 -1.500000
vn -0.575937 3.073012 -2.945587
v 0.279000 34.604000 -1.500000
vn -1.422420 2.733083 -2.748396
v -0.676000 34.326000 -1.500000
vn -2.360141 1.981159 -2.749580
v -1.452000 33.702999 -1.500000
vn -2.938269 0.926789 -2.748047
v -1.931000 32.831001 -1.500000
vn -3.126335 0.033640 -2.945572
v -2.039000 31.841999 -1.500000
vn -3.110160 -0.418530 -3.048564
v 0.458000 3.296000 -1.500000
vn -0.577158 -3.074402 -2.956216
v 3.288292 0.173868 -1.500000
vn -1.133932 -2.915348 -2.956217
v 2.667630 0.351173 -1.500000
vn -1.651851 -2.656397 -2.956217
v 2.090282 0.639837 -1.500000
vn -2.113168 -2.306421 -2.956216
v 1.576031 1.029971 -1.500000
vn -2.502074 -1.877413 -2.956217
v 1.142500 1.508206 -1.500000
vn -2.805244 -1.384074 -2.956216
v 0.804542 2.058154 -1.500000
vn -3.012290 -0.843308 -2.956216
v 0.573739 2.660970 -1.500000
# 60 vertices, 0 vertices normals


usemtl material_0
f 1//1 2//2 3//3
f 3//3 2//2 4//4
f 3//3 4//4 5//5
f 6//6 7//7 1//1
f 1//1 7//7 8//8
f 1//1 8//8 9//9
f 9//9 10//10 1//1
f 1//1 10//10 11//11
f 1//1 11//11 12//12
f 12//12 2//2 1//1
f 4//4 2//2 13//13
f 13//13 2//2 14//14
f 13//13 14//14 15//15
f 15//15 14//14 16//16
f 15//15 16//16 17//17
f 17//17 18//18 15//15
f 13//13 19//19 4//4
f 4//4 19//19 20//20
f 20//20 19//19 21//21
f 20//20 21//21 22//22
f 22//22 21//21 23//23
f 23//23 21//21 24//24
f 5//5 25//25 3//3
f 3//3 25//25 26//26
f 3//3 26//26 27//27
f 27//27 28//28 3//3
f 3//3 28//28 29//29
f 3//3 29//29 30//30
f 1//1 3//3 31//31
f 31//31 3//3 32//32
f 33//33 2//2 34//34
f 34//34 2//2 12//12
f 34//34 12//12 11//11
f 34//34 11//11 35//35
f 35//35 11//11 10//10
f 35//35 10//10 36//36
f 36//36 10//10 9//9
f 36//36 9//9 37//37
f 37//37 9//9 8//8
f 37//37 8//8 38//38
f 38//38 8//8 7//7
f 38//38 7//7 39//39
f 39//39 7//7 6//6
f 39//39 6//6 40//40
f 40//40 6//6 31//31
f 31//31 6//6 1//1
f 14//14 2//2 41//41
f 41//41 2//2 33//33
f 16//16 14//14 42//42
f 42//42 14//14 41//41
f 17//17 16//16 43//43
f 43//43 16//16 42//42
f 18//18 17//17 44//44
f 44//44 17//17 43//43
f 15//15 18//18 45//45
f 45//45 18//18 44//44
f 13//13 15//15 46//46
f 46//46 15//15 45//45
f 19//19 13//13 47//47
f 47//47 13//13 46//46
f 21//21 19//19 48//48
f 48//48 19//19 47//47
f 24//24 21//21 49//49
f 49//49 21//21 48//48
f 23//23 24//24 50//50
f 50//50 24//24 49//49
f 22//22 23//23 51//51
f 51//51 23//23 50//50
f 20//20 22//22 52//52
f 52//52 22//22 51//51
f 4//4 20//20 53//53
f 53//53 20//20 52//52
f 32//32 3//3 54//54
f 54//54 3//3 30//30
f 54//54 30//30 55//55
f 55//55 30//30 29//29
f 55//55 29//29 56//56
f 56//56 29//29 28//28
f 56//56 28//28 57//57
f 57//57 28//28 27//27
f 57//57 27//27 58//58
f 58//58 27//27 26//26
f 58//58 26//26 59//59
f 59//59 26//26 25//25
f 59//59 25//25 60//60
f 60//60 25//25 5//5
f 60//60 5//5 53//53
f 53//53 5//5 4//4
f 32//32 33//33 31//31
f 31//31 33//33 34//34
f 31//31 34//34 35//35
f 54//54 55//55 32//32
f 32//32 55//55 56//56
f 32//32 56//56 57//57
f 57//57 58//58 32//32
f 32//32 58//58 59//59
f 32//32 59//59 60//60
f 60//60 53//53 32//32
f 32//32 53//53 33//33
f 52//52 47//47 53//53
f 53//53 47//47 46//46
f 53//53 46//46 33//33
f 33//33 46//46 41//41
f 41//41 46//46 45//45
f 41//41 45//45 42//42
f 42//42 45//45 43//43
f 43//43 45//45 44//44
f 47//47 52//52 48//48
f 48//48 52//52 51//51
f 48//48 51//51 50//50
f 50//50 49//49 48//48
f 35//35 36//36 31//31
f 31//31 36//36 37//37
f 31//31 37//37 38//38
f 38//38 39//39 31//31
f 31//31 39//39 40//40
# 116 faces, 0 coords texture

# End of File
