####
#
# OBJ File Generated by Meshlab
#
####
# Object reskin_finger_pad.obj
#
# Vertices: 134
# Faces: 264
#
####
mtllib ./reskin_finger_pad.obj.mtl

vn -0.135037 -3.135778 3.055519
v -2.900000 -0.100000 0.000000
vn 0.103274 -3.138194 3.075751
v 17.000999 -0.100000 0.000000
vn -0.540231 -3.082617 2.966718
v -3.108475 -0.082011 0.000000
vn 0.410220 -3.107912 3.010698
v 17.275024 -0.081945 0.000000
vn -2.440887 1.946221 3.366150
v -0.270909 7.411068 0.000000
vn -2.812979 1.353829 3.366140
v -0.177515 7.559756 0.000000
vn 0.812315 -3.027796 3.010716
v 17.544350 -0.028282 0.000000
vn -3.043818 0.693452 3.366152
v -0.119576 7.725508 0.000000
vn 3.138244 -0.102531 3.076266
v 19.100000 2.000000 0.000000
vn -3.131800 0.175125 3.253312
v -0.100000 7.900000 0.000000
vn 3.138224 0.102823 3.076087
v 19.100000 20.002001 0.000000
vn 0.101328 3.138321 3.077040
v 17.000000 22.100000 0.000000
vn 3.108001 0.409471 3.010618
v 19.082026 20.276009 0.000000
vn 3.027901 0.811880 3.010611
v 19.028419 20.545321 0.000000
vn 1.200517 -2.895886 3.010710
v 17.804369 0.060071 0.000000
vn 1.568186 -2.714441 3.010713
v 18.050632 0.181602 0.000000
vn 1.909028 -2.486566 3.010713
v 18.278929 0.334233 0.000000
vn 2.217212 -2.216161 3.010715
v 18.485353 0.515354 0.000000
vn 2.487477 -1.907840 3.010706
v 18.666376 0.721865 0.000000
vn 2.715192 -1.566887 3.010716
v 18.818897 0.950234 0.000000
vn 2.896455 -1.199146 3.010716
v 18.940311 1.196556 0.000000
vn 3.028180 -0.810875 3.010704
v 19.028542 1.456616 0.000000
vn 3.108108 -0.408738 3.010719
v 19.082075 1.725966 0.000000
vn 2.895935 1.200376 3.010622
v 18.940098 20.805326 0.000000
vn 2.714365 1.568300 3.010617
v 18.818577 21.051571 0.000000
vn 2.486290 1.909372 3.010613
v 18.665937 21.279835 0.000000
vn 2.215615 2.217743 3.010611
v 18.484793 21.486208 0.000000
vn 1.907003 2.488109 3.010627
v 18.278246 21.667154 0.000000
vn 1.565725 2.715849 3.010613
v 18.049837 21.819578 0.000000
vn 1.197609 2.897079 3.010613
v 17.803478 21.940865 0.000000
vn 0.808989 3.028676 3.010622
v 17.543388 22.028936 0.000000
vn 0.406514 3.108389 3.010615
v 17.274025 22.082287 0.000000
vn -0.103991 3.138147 3.075337
v 1.998000 22.100000 0.000000
vn -3.138246 0.102496 3.076295
v -0.100000 20.000000 0.000000
vn -3.108128 0.408617 3.010751
v -0.082086 20.273951 0.000000
vn -3.028250 0.810634 3.010752
v -0.028584 20.543222 0.000000
vn -2.896604 1.198795 3.010751
v 0.059592 20.803213 0.000000
vn -2.715443 1.566460 3.010755
v 0.180935 21.049477 0.000000
vn -2.487859 1.907349 3.010749
v 0.333371 21.277805 0.000000
vn -2.217742 2.215636 3.010751
v 0.514293 21.484293 0.000000
vn -1.909725 2.486037 3.010759
v 0.720608 21.665411 0.000000
vn -1.569049 2.713946 3.010742
v 0.948791 21.818066 0.000000
vn -1.201551 2.895463 3.010758
v 1.194939 21.939642 0.000000
vn -0.813521 3.027475 3.010749
v 1.454845 22.028067 0.000000
vn -0.411579 3.107737 3.010755
v 1.724066 22.081825 0.000000
vn -1.946223 2.440885 3.366154
v -0.395068 7.286909 0.000000
vn -1.353827 2.812980 3.366152
v -0.543756 7.193515 0.000000
vn -0.693450 3.043818 3.366153
v -0.709508 7.135576 0.000000
vn -0.175123 3.131800 3.253312
v -0.884000 7.116000 0.000000
vn -3.135777 -0.135037 3.055519
v -4.100000 1.100000 0.000000
vn -3.082618 -0.540229 2.966764
v -4.082011 0.891525 0.000000
vn -3.135670 0.136286 3.054721
v -4.100000 5.900000 0.000000
vn -0.136289 3.135669 3.054719
v -2.884000 7.116000 0.000000
vn -3.082266 0.542387 2.966961
v -4.081607 6.111189 0.000000
vn -2.941149 1.069669 2.966959
v -4.026802 6.315970 0.000000
vn -2.710565 1.564413 2.966961
v -3.937249 6.508114 0.000000
vn -2.397531 2.011566 2.966962
v -3.815675 6.681777 0.000000
vn -2.011567 2.397530 2.966961
v -3.665777 6.831675 0.000000
vn -1.564410 2.710566 2.966960
v -3.492114 6.953249 0.000000
vn -1.069666 2.941150 2.966961
v -3.299970 7.042801 0.000000
vn -0.542391 3.082266 2.966964
v -3.095189 7.097607 0.000000
vn -2.941657 -1.068191 2.966759
v -4.028035 0.689357 0.000000
vn -2.711010 -1.563587 2.966762
v -3.939715 0.499660 0.000000
vn -2.397710 -2.011309 2.966762
v -3.819745 0.328217 0.000000
vn -2.011309 -2.397710 2.966762
v -3.671783 0.180255 0.000000
vn -1.563586 -2.711010 2.966761
v -3.500340 0.060285 0.000000
vn -1.068192 -2.941657 2.966762
v -3.310643 -0.028034 0.000000
vn 0.103274 -3.138195 -3.075751
v 17.000999 -0.100000 -1.000000
vn -0.135037 -3.135777 -3.055519
v -2.900000 -0.100000 -1.000000
vn 3.138243 -0.102531 -3.076266
v 19.100000 2.000000 -1.000000
vn 3.108109 -0.408738 -3.010719
v 19.082075 1.725966 -1.000000
vn 3.028180 -0.810875 -3.010704
v 19.028542 1.456616 -1.000000
vn 2.896455 -1.199146 -3.010716
v 18.940311 1.196556 -1.000000
vn 2.715192 -1.566887 -3.010716
v 18.818897 0.950234 -1.000000
vn 2.487477 -1.907840 -3.010706
v 18.666376 0.721865 -1.000000
vn 2.217212 -2.216161 -3.010715
v 18.485353 0.515354 -1.000000
vn 1.909028 -2.486566 -3.010714
v 18.278929 0.334233 -1.000000
vn 1.568187 -2.714441 -3.010713
v 18.050632 0.181602 -1.000000
vn 1.200517 -2.895886 -3.010710
v 17.804369 0.060071 -1.000000
vn 0.812315 -3.027795 -3.010715
v 17.544350 -0.028282 -1.000000
vn 0.410220 -3.107913 -3.010691
v 17.275024 -0.081945 -1.000000
vn 3.138224 0.102823 -3.076087
v 19.100000 20.002001 -1.000000
vn 0.101328 3.138321 -3.077040
v 17.000000 22.100000 -1.000000
vn 0.406514 3.108389 -3.010615
v 17.274025 22.082287 -1.000000
vn 0.808989 3.028676 -3.010622
v 17.543388 22.028936 -1.000000
vn 1.197609 2.897079 -3.010613
v 17.803478 21.940865 -1.000000
vn 1.565725 2.715850 -3.010613
v 18.049837 21.819578 -1.000000
vn 1.907002 2.488109 -3.010627
v 18.278246 21.667154 -1.000000
vn 2.215615 2.217743 -3.010611
v 18.484793 21.486208 -1.000000
vn 2.486289 1.909372 -3.010613
v 18.665937 21.279835 -1.000000
vn 2.714365 1.568300 -3.010617
v 18.818577 21.051571 -1.000000
vn 2.895935 1.200376 -3.010622
v 18.940098 20.805326 -1.000000
vn 3.027901 0.811880 -3.010611
v 19.028419 20.545321 -1.000000
vn 3.108001 0.409471 -3.010618
v 19.082026 20.276009 -1.000000
vn -0.103991 3.138147 -3.075337
v 1.998000 22.100000 -1.000000
vn -3.138245 0.102496 -3.076295
v -0.100000 20.000000 -1.000000
vn -3.108128 0.408617 -3.010751
v -0.082086 20.273951 -1.000000
vn -3.028250 0.810634 -3.010752
v -0.028584 20.543222 -1.000000
vn -2.896604 1.198795 -3.010751
v 0.059592 20.803213 -1.000000
vn -2.715443 1.566460 -3.010755
v 0.180935 21.049477 -1.000000
vn -2.487859 1.907349 -3.010749
v 0.333371 21.277805 -1.000000
vn -2.217742 2.215636 -3.010751
v 0.514293 21.484293 -1.000000
vn -1.909725 2.486037 -3.010759
v 0.720608 21.665411 -1.000000
vn -1.569049 2.713946 -3.010742
v 0.948791 21.818066 -1.000000
vn -1.201551 2.895463 -3.010758
v 1.194939 21.939642 -1.000000
vn -0.813521 3.027475 -3.010749
v 1.454845 22.028067 -1.000000
vn -0.411579 3.107737 -3.010755
v 1.724066 22.081825 -1.000000
vn -3.131800 0.175125 -3.253312
v -0.100000 7.900000 -1.000000
vn -0.175123 3.131800 -3.253302
v -0.884000 7.116000 -1.000000
vn -0.693450 3.043818 -3.366153
v -0.709508 7.135576 -1.000000
vn -1.353827 2.812980 -3.366152
v -0.543756 7.193515 -1.000000
vn -1.946223 2.440885 -3.366154
v -0.395068 7.286909 -1.000000
vn -2.440887 1.946221 -3.366150
v -0.270909 7.411068 -1.000000
vn -2.812979 1.353828 -3.366153
v -0.177515 7.559756 -1.000000
vn -3.043818 0.693452 -3.366152
v -0.119576 7.725508 -1.000000
vn -0.136289 3.135669 -3.054718
v -2.884000 7.116000 -1.000000
vn -3.135669 0.136286 -3.054721
v -4.100000 5.900000 -1.000000
vn -3.082267 0.542387 -2.966962
v -4.081607 6.111189 -1.000000
vn -2.941149 1.069669 -2.966959
v -4.026802 6.315970 -1.000000
vn -2.710565 1.564413 -2.966961
v -3.937249 6.508114 -1.000000
vn -2.397531 2.011565 -2.966962
v -3.815675 6.681777 -1.000000
vn -2.011567 2.397530 -2.966960
v -3.665777 6.831675 -1.000000
vn -1.564410 2.710567 -2.966960
v -3.492114 6.953249 -1.000000
vn -1.069667 2.941150 -2.966961
v -3.299970 7.042801 -1.000000
vn -0.542391 3.082266 -2.966960
v -3.095189 7.097607 -1.000000
vn -3.135777 -0.135037 -3.055519
v -4.100000 1.100000 -1.000000
vn -0.540231 -3.082617 -2.966717
v -3.108475 -0.082011 -1.000000
vn -1.068192 -2.941657 -2.966762
v -3.310643 -0.028034 -1.000000
vn -1.563586 -2.711010 -2.966761
v -3.500340 0.060285 -1.000000
vn -2.011309 -2.397710 -2.966762
v -3.671783 0.180255 -1.000000
vn -2.397710 -2.011309 -2.966762
v -3.819745 0.328217 -1.000000
vn -2.711010 -1.563587 -2.966762
v -3.939715 0.499660 -1.000000
vn -2.941657 -1.068191 -2.966759
v -4.028035 0.689357 -1.000000
vn -3.082618 -0.540229 -2.966764
v -4.082011 0.891525 -1.000000
# 134 vertices, 0 vertices normals


usemtl material_0
f 1//1 2//2 3//3
f 3//3 2//2 4//4
f 3//3 4//4 5//5
f 5//5 4//4 6//6
f 6//6 4//4 7//7
f 6//6 7//7 8//8
f 8//8 7//7 9//9
f 8//8 9//9 10//10
f 10//10 9//9 11//11
f 10//10 11//11 12//12
f 12//12 11//11 13//13
f 12//12 13//13 14//14
f 15//15 16//16 7//7
f 7//7 16//16 17//17
f 7//7 17//17 18//18
f 18//18 19//19 7//7
f 7//7 19//19 20//20
f 7//7 20//20 21//21
f 21//21 22//22 7//7
f 7//7 22//22 23//23
f 7//7 23//23 9//9
f 14//14 24//24 12//12
f 12//12 24//24 25//25
f 12//12 25//25 26//26
f 26//26 27//27 12//12
f 12//12 27//27 28//28
f 12//12 28//28 29//29
f 29//29 30//30 12//12
f 12//12 30//30 31//31
f 12//12 31//31 32//32
f 12//12 33//33 10//10
f 10//10 33//33 34//34
f 34//34 33//33 35//35
f 35//35 33//33 36//36
f 36//36 33//33 37//37
f 37//37 33//33 38//38
f 38//38 33//33 39//39
f 39//39 33//33 40//40
f 40//40 33//33 41//41
f 41//41 33//33 42//42
f 42//42 33//33 43//43
f 43//43 33//33 44//44
f 44//44 33//33 45//45
f 5//5 46//46 3//3
f 3//3 46//46 47//47
f 3//3 47//47 48//48
f 48//48 49//49 3//3
f 3//3 49//49 50//50
f 3//3 50//50 51//51
f 50//50 49//49 52//52
f 52//52 49//49 53//53
f 52//52 53//53 54//54
f 54//54 53//53 55//55
f 55//55 53//53 56//56
f 56//56 53//53 57//57
f 57//57 53//53 58//58
f 58//58 53//53 59//59
f 59//59 53//53 60//60
f 60//60 53//53 61//61
f 51//51 62//62 3//3
f 3//3 62//62 63//63
f 3//3 63//63 64//64
f 64//64 65//65 3//3
f 3//3 65//65 66//66
f 3//3 66//66 67//67
f 2//2 1//1 68//68
f 68//68 1//1 69//69
f 70//70 9//9 71//71
f 71//71 9//9 23//23
f 71//71 23//23 72//72
f 72//72 23//23 22//22
f 72//72 22//22 73//73
f 73//73 22//22 21//21
f 73//73 21//21 74//74
f 74//74 21//21 20//20
f 74//74 20//20 75//75
f 75//75 20//20 19//19
f 75//75 19//19 76//76
f 76//76 19//19 18//18
f 76//76 18//18 77//77
f 77//77 18//18 17//17
f 77//77 17//17 78//78
f 78//78 17//17 16//16
f 78//78 16//16 79//79
f 79//79 16//16 15//15
f 79//79 15//15 80//80
f 80//80 15//15 7//7
f 80//80 7//7 81//81
f 81//81 7//7 4//4
f 81//81 4//4 68//68
f 68//68 4//4 2//2
f 11//11 9//9 82//82
f 82//82 9//9 70//70
f 83//83 12//12 84//84
f 84//84 12//12 32//32
f 84//84 32//32 85//85
f 85//85 32//32 31//31
f 85//85 31//31 86//86
f 86//86 31//31 30//30
f 86//86 30//30 87//87
f 87//87 30//30 29//29
f 87//87 29//29 88//88
f 88//88 29//29 28//28
f 88//88 28//28 89//89
f 89//89 28//28 27//27
f 89//89 27//27 90//90
f 90//90 27//27 26//26
f 90//90 26//26 91//91
f 91//91 26//26 25//25
f 91//91 25//25 92//92
f 92//92 25//25 24//24
f 92//92 24//24 93//93
f 93//93 24//24 14//14
f 93//93 14//14 94//94
f 94//94 14//14 13//13
f 94//94 13//13 82//82
f 82//82 13//13 11//11
f 33//33 12//12 95//95
f 95//95 12//12 83//83
f 96//96 34//34 97//97
f 97//97 34//34 35//35
f 97//97 35//35 98//98
f 98//98 35//35 36//36
f 98//98 36//36 99//99
f 99//99 36//36 37//37
f 99//99 37//37 100//100
f 100//100 37//37 38//38
f 100//100 38//38 101//101
f 101//101 38//38 39//39
f 101//101 39//39 102//102
f 102//102 39//39 40//40
f 102//102 40//40 103//103
f 103//103 40//40 41//41
f 103//103 41//41 104//104
f 104//104 41//41 42//42
f 104//104 42//42 105//105
f 105//105 42//42 43//43
f 105//105 43//43 106//106
f 106//106 43//43 44//44
f 106//106 44//44 107//107
f 107//107 44//44 45//45
f 107//107 45//45 95//95
f 95//95 45//45 33//33
f 10//10 34//34 108//108
f 108//108 34//34 96//96
f 109//109 49//49 110//110
f 110//110 49//49 48//48
f 110//110 48//48 111//111
f 111//111 48//48 47//47
f 111//111 47//47 112//112
f 112//112 47//47 46//46
f 112//112 46//46 113//113
f 113//113 46//46 5//5
f 113//113 5//5 114//114
f 114//114 5//5 6//6
f 114//114 6//6 115//115
f 115//115 6//6 8//8
f 115//115 8//8 108//108
f 108//108 8//8 10//10
f 53//53 49//49 116//116
f 116//116 49//49 109//109
f 117//117 52//52 118//118
f 118//118 52//52 54//54
f 118//118 54//54 119//119
f 119//119 54//54 55//55
f 119//119 55//55 120//120
f 120//120 55//55 56//56
f 120//120 56//56 121//121
f 121//121 56//56 57//57
f 121//121 57//57 122//122
f 122//122 57//57 58//58
f 122//122 58//58 123//123
f 123//123 58//58 59//59
f 123//123 59//59 124//124
f 124//124 59//59 60//60
f 124//124 60//60 125//125
f 125//125 60//60 61//61
f 125//125 61//61 116//116
f 116//116 61//61 53//53
f 50//50 52//52 126//126
f 126//126 52//52 117//117
f 69//69 1//1 127//127
f 127//127 1//1 3//3
f 127//127 3//3 128//128
f 128//128 3//3 67//67
f 128//128 67//67 129//129
f 129//129 67//67 66//66
f 129//129 66//66 130//130
f 130//130 66//66 65//65
f 130//130 65//65 131//131
f 131//131 65//65 64//64
f 131//131 64//64 132//132
f 132//132 64//64 63//63
f 132//132 63//63 133//133
f 133//133 63//63 62//62
f 133//133 62//62 134//134
f 134//134 62//62 51//51
f 134//134 51//51 126//126
f 126//126 51//51 50//50
f 69//69 127//127 68//68
f 68//68 127//127 81//81
f 81//81 127//127 113//113
f 81//81 113//113 114//114
f 128//128 129//129 127//127
f 127//127 129//129 130//130
f 127//127 130//130 131//131
f 131//131 132//132 127//127
f 127//127 132//132 133//133
f 127//127 133//133 134//134
f 134//134 126//126 127//127
f 127//127 126//126 109//109
f 127//127 109//109 110//110
f 126//126 117//117 109//109
f 109//109 117//117 125//125
f 109//109 125//125 116//116
f 117//117 118//118 125//125
f 125//125 118//118 119//119
f 125//125 119//119 120//120
f 120//120 121//121 125//125
f 125//125 121//121 122//122
f 125//125 122//122 123//123
f 123//123 124//124 125//125
f 110//110 111//111 127//127
f 127//127 111//111 112//112
f 127//127 112//112 113//113
f 114//114 115//115 81//81
f 81//81 115//115 70//70
f 81//81 70//70 71//71
f 115//115 108//108 70//70
f 70//70 108//108 82//82
f 82//82 108//108 83//83
f 82//82 83//83 94//94
f 94//94 83//83 93//93
f 93//93 83//83 92//92
f 92//92 83//83 91//91
f 91//91 83//83 90//90
f 90//90 83//83 89//89
f 89//89 83//83 88//88
f 88//88 83//83 87//87
f 87//87 83//83 86//86
f 86//86 83//83 85//85
f 85//85 83//83 84//84
f 83//83 108//108 95//95
f 95//95 108//108 96//96
f 95//95 96//96 97//97
f 97//97 98//98 95//95
f 95//95 98//98 99//99
f 95//95 99//99 100//100
f 100//100 101//101 95//95
f 95//95 101//101 102//102
f 95//95 102//102 103//103
f 103//103 104//104 95//95
f 95//95 104//104 105//105
f 95//95 105//105 106//106
f 106//106 107//107 95//95
f 71//71 72//72 81//81
f 81//81 72//72 73//73
f 81//81 73//73 74//74
f 74//74 75//75 81//81
f 81//81 75//75 76//76
f 81//81 76//76 77//77
f 81//81 77//77 80//80
f 80//80 77//77 78//78
f 80//80 78//78 79//79
# 264 faces, 0 coords texture

# End of File
