# https://github.com/mikedh/trimesh
v -0.00926682 -0.00476735 0.04220000
v -0.01048133 -0.00101291 0.04220000
v -0.00964000 -0.00083700 0.04371300
v -0.00752899 -0.00302583 0.04548172
v -0.00588991 -0.00281994 0.04680000
v -0.00650634 -0.00070162 0.04680000
v -0.01007698 0.00289072 0.04220000
v -0.00921368 0.00473670 0.04220000
v -0.00748521 0.00373992 0.04527049
v -0.00805500 0.00104400 0.04553400
v -0.00595258 0.00285607 0.04680000
v -0.00100000 0.00000000 0.04220000
v -0.00100000 0.00000000 0.04680000
vn -0.58435976 -0.53155678 0.26407216
vn -0.85933634 -0.14046795 -0.48540840
vn -0.82034548 -0.05819398 0.56889960
vn -0.40902318 -0.54173325 0.58587534
vn -0.00150043 -0.73405748 0.66878143
vn -0.36203319 -0.03081889 0.93136873
vn -0.82093747 0.20822783 0.04024278
vn -0.29682434 0.86795214 -0.03703369
vn -0.16054215 0.86778516 0.46214830
vn -0.69737209 0.07861261 0.71238488
vn -0.22502101 0.25959984 0.87696470
vn 0.83207302 -0.00000006 -0.55466610
vn 0.83207302 -0.00000006 0.55466610
f 8//8 11//11 13//13
f 13//13 11//11 5//5
f 12//12 8//8 13//13
f 13//13 5//5 1//1
f 12//12 13//13 1//1
f 1//1 2//2 7//7
f 8//8 9//9 11//11
f 5//5 4//4 1//1
f 12//12 1//1 8//8
f 1//1 7//7 8//8
f 11//11 6//6 5//5
f 2//2 3//3 7//7
f 4//4 5//5 6//6
f 7//7 3//3 10//10
f 8//8 7//7 9//9
f 6//6 10//10 4//4
f 10//10 9//9 7//7
f 10//10 6//6 11//11
f 3//3 4//4 10//10
f 3//3 1//1 4//4
f 2//2 1//1 3//3
f 10//10 11//11 9//9

