# https://github.com/mikedh/trimesh
v -0.00987835 0.00628687 0.02450000
v -0.00986392 0.00627853 0.03380000
v -0.00723550 0.00928050 0.02450000
v -0.00727078 0.00922798 0.03380000
v -0.00050000 0.00086603 0.02450000
v -0.00050000 0.00086603 0.03380000
v -0.00314300 0.01143850 0.02450000
v -0.00050547 0.01182214 0.02450000
v -0.00319235 0.01140554 0.03380000
v -0.00050548 0.01183849 0.03380000
vn -0.69481165 0.09081677 -0.63207013
vn -0.72382990 0.09103039 0.49373822
vn -0.45850930 0.56206410 -0.68427381
vn -0.47229076 0.54227546 0.69229391
vn 0.41603647 -0.72059640 -0.55466610
vn 0.41603647 -0.72059640 0.55466610
vn -0.19623341 0.69871445 -0.68343549
vn 0.63053111 0.65463126 -0.28805801
vn -0.23261599 0.67491150 0.69512866
vn 0.26002935 0.65332787 0.64040081
f 2//2 1//1 5//5
f 8//8 10//10 6//6
f 6//6 4//4 2//2
f 6//6 10//10 9//9
f 6//6 9//9 4//4
f 6//6 5//5 8//8
f 5//5 6//6 2//2
f 3//3 4//4 9//9
f 5//5 3//3 8//8
f 8//8 3//3 7//7
f 3//3 9//9 7//7
f 7//7 9//9 8//8
f 3//3 2//2 4//4
f 2//2 3//3 1//1
f 5//5 1//1 3//3
f 9//9 10//10 8//8

