# https://github.com/mikedh/trimesh
v -0.00878110 -0.00565264 0.04220000
v -0.00527856 -0.00909158 0.04220000
v -0.00727900 -0.00635700 0.04380500
v -0.00656130 -0.00496055 0.04543021
v -0.00540875 -0.00370336 0.04680000
v -0.00453300 -0.00899800 0.04335800
v -0.00050491 -0.01070249 0.04220000
v -0.00050456 -0.00998485 0.04360458
v -0.00332600 -0.00755650 0.04547300
v -0.00050330 -0.00747799 0.04617825
v -0.00251959 -0.00603207 0.04680000
v -0.00050000 -0.00086603 0.04220000
v -0.00050000 -0.00086603 0.04680000
vn -0.83939737 0.05568157 -0.02841315
vn -0.43638783 -0.74375763 -0.48540552
vn -0.63626561 -0.52533583 0.56496756
vn -0.68853865 -0.04872801 0.58014240
vn -0.63763001 0.37402398 0.66263613
vn -0.39316930 -0.74510635 0.53873410
vn 0.23858087 -0.78059853 -0.45560580
vn 0.31707678 -0.69792991 0.48886561
vn -0.30079187 -0.63056382 0.70871287
vn 0.66669347 -0.43078945 0.58991796
vn -0.16113632 -0.29785753 0.93732699
vn 0.41603655 0.72059636 -0.55466610
vn 0.41603655 0.72059635 0.55466610
f 11//11 10//10 13//13
f 13//13 5//5 11//11
f 12//12 13//13 7//7
f 12//12 1//1 13//13
f 13//13 10//10 8//8
f 2//2 1//1 12//12
f 1//1 4//4 5//5
f 1//1 5//5 13//13
f 13//13 8//8 7//7
f 7//7 2//2 12//12
f 8//8 2//2 7//7
f 9//9 6//6 8//8
f 2//2 8//8 6//6
f 5//5 4//4 11//11
f 10//10 9//9 8//8
f 9//9 10//10 11//11
f 1//1 3//3 4//4
f 11//11 4//4 9//9
f 3//3 9//9 4//4
f 3//3 6//6 9//9
f 3//3 2//2 6//6
f 2//2 3//3 1//1

