# https://github.com/mikedh/trimesh
v -0.01035663 -0.00539582 0.02450000
v -0.01147300 -0.00233400 0.02450000
v -0.01032766 -0.00537912 0.03380000
v -0.01167262 0.00015329 0.03380000
v -0.01158700 0.00118300 0.02450000
v -0.01035559 0.00539522 0.02450000
v -0.01034739 0.00539049 0.03380000
v -0.00100000 0.00000000 0.02450000
v -0.00100000 0.00000000 0.03380000
vn -0.44918077 -0.53258332 -0.63018012
vn -0.71462929 -0.14170330 -0.68500011
vn -0.46922286 -0.55109982 0.49380229
vn -0.71167370 -0.02602756 0.69740076
vn -0.72141729 0.07206044 -0.68509967
vn -0.44904704 0.53230431 -0.63022418
vn -0.56838346 0.35925017 0.66527617
vn 0.83207303 -0.00000007 -0.55466610
vn 0.83207302 -0.00000006 0.55466610
f 9//9 8//8 6//6
f 9//9 3//3 8//8
f 9//9 6//6 7//7
f 9//9 7//7 3//3
f 3//3 1//1 8//8
f 7//7 4//4 3//3
f 2//2 3//3 4//4
f 7//7 6//6 5//5
f 6//6 8//8 5//5
f 7//7 5//5 4//4
f 5//5 8//8 1//1
f 4//4 5//5 2//2
f 5//5 1//1 2//2
f 3//3 2//2 1//1

