# https://github.com/mikedh/trimesh
v -0.00986551 -0.00627944 0.03420000
v -0.00818822 -0.00848467 0.03420000
v -0.00635423 -0.00996108 0.03420000
v -0.00985018 -0.00627058 0.03844297
v -0.00802400 -0.00832100 0.03930200
v -0.00636500 -0.00993400 0.03851100
v -0.00658689 -0.00855786 0.04180000
v -0.00898293 -0.00576930 0.04180000
v -0.00319825 -0.01145852 0.03420000
v -0.00373650 -0.01116700 0.03814000
v -0.00050552 -0.01190676 0.03420000
v -0.00050549 -0.01185219 0.03821681
v -0.00403187 -0.01006615 0.04180000
v -0.00050502 -0.01090569 0.04180000
v -0.00050000 -0.00086603 0.03420000
v -0.00050000 -0.00086603 0.04180000
vn -0.74024988 -0.07531263 -0.48751527
vn -0.59899942 -0.61051783 -0.33341797
vn -0.40382331 -0.60386304 -0.68722352
vn -0.88937343 -0.13560317 0.14289927
vn -0.69870847 -0.68390571 0.20995107
vn -0.54115476 -0.82881859 0.14216632
vn -0.46125765 -0.56770664 0.61183853
vn -0.69010553 -0.25746844 0.52449250
vn -0.20670146 -0.68075971 -0.69430619
vn -0.33522176 -0.92892089 0.12584917
vn 0.55264026 -0.60592439 -0.57222756
vn 0.22395926 -0.87048744 0.07751136
vn -0.29387908 -0.68222114 0.60226710
vn 0.27554851 -0.59934479 0.60361997
vn 0.41603656 0.72059635 -0.55466610
vn 0.41603655 0.72059635 0.55466610
f 15//15 16//16 11//11
f 15//15 1//1 16//16
f 16//16 14//14 12//12
f 16//16 13//13 14//14
f 16//16 7//7 13//13
f 16//16 12//12 11//11
f 15//15 11//11 9//9
f 15//15 9//9 3//3
f 15//15 3//3 2//2
f 2//2 1//1 15//15
f 16//16 8//8 7//7
f 1//1 4//4 8//8
f 1//1 8//8 16//16
f 9//9 10//10 3//3
f 9//9 12//12 10//10
f 7//7 5//5 6//6
f 12//12 9//9 11//11
f 7//7 6//6 13//13
f 8//8 5//5 7//7
f 2//2 6//6 5//5
f 13//13 6//6 10//10
f 4//4 2//2 5//5
f 10//10 12//12 14//14
f 4//4 5//5 8//8
f 10//10 14//14 13//13
f 6//6 3//3 10//10
f 3//3 6//6 2//2
f 4//4 1//1 2//2

