# https://github.com/mikedh/trimesh
v 0.00050000 0.00086603 0.02450000
v 0.00050000 0.00086603 0.03380000
v 0.00050549 0.01185963 0.02450000
v 0.00486000 0.01109900 0.02450000
v 0.00050552 0.01191274 0.03380000
v 0.00470529 0.01113034 0.03380000
v 0.00786100 0.00923650 0.02450000
v 0.01033352 0.00654996 0.02450000
v 0.00786664 0.00923126 0.03380000
v 0.01031271 0.00653794 0.03380000
vn -0.41603651 -0.72059638 -0.55466610
vn -0.41603651 -0.72059638 0.55466610
vn -0.29498669 0.67675860 -0.48614860
vn 0.26181814 0.68524494 -0.67962537
vn -0.29613299 0.64134629 0.63345966
vn 0.22512834 0.67537018 0.69691074
vn 0.45963802 0.56051996 -0.68490933
vn 0.74072723 0.07660773 -0.48750598
vn 0.46886975 0.54692412 0.69052813
vn 0.68045935 0.10431958 0.63818908
f 2//2 3//3 1//1
f 8//8 2//2 1//1
f 2//2 10//10 9//9
f 8//8 10//10 2//2
f 2//2 5//5 3//3
f 2//2 6//6 5//5
f 2//2 9//9 6//6
f 3//3 5//5 6//6
f 6//6 4//4 3//3
f 8//8 1//1 7//7
f 7//7 3//3 4//4
f 7//7 1//1 3//3
f 6//6 7//7 4//4
f 7//7 10//10 8//8
f 9//9 7//7 6//6
f 10//10 7//7 9//9

