# https://github.com/mikedh/trimesh
v 0.00100000 -0.00000000 0.04220000
v 0.00100000 -0.00000000 0.04680000
v 0.00969481 -0.00501416 0.04220000
v 0.01047147 -0.00348422 0.04220000
v 0.00845670 -0.00430016 0.04455233
v 0.01103486 -0.00028384 0.04220000
v 0.01021500 -0.00096400 0.04373600
v 0.00630572 -0.00305972 0.04680000
v 0.00710127 -0.00072496 0.04680000
v 0.00859300 -0.00097300 0.04559100
v 0.00978858 0.00506823 0.04220000
v 0.00899450 0.00270350 0.04472000
v 0.00633915 0.00307900 0.04680000
vn -0.83207303 0.00000007 -0.55466610
vn -0.83207303 0.00000006 0.55466610
vn 0.32141658 -0.83318587 -0.44999186
vn 0.83491676 -0.27295163 -0.47541733
vn 0.29711412 -0.72807874 0.52648729
vn 0.86792571 0.06286797 -0.48980058
vn 0.82280138 -0.07279048 0.56364832
vn 0.00752272 -0.74061850 0.66144026
vn 0.36970675 -0.03697809 0.92841238
vn 0.68975684 -0.08153741 0.71943530
vn 0.54935661 0.55683371 -0.24341155
vn 0.73023915 0.21570776 0.64109729
vn 0.17907182 0.45099351 0.74997931
f 8//8 2//2 1//1
f 5//5 8//8 1//1
f 2//2 8//8 9//9
f 1//1 2//2 13//13
f 2//2 9//9 13//13
f 1//1 3//3 5//5
f 1//1 11//11 3//3
f 11//11 1//1 13//13
f 11//11 6//6 4//4
f 11//11 4//4 3//3
f 7//7 4//4 6//6
f 10//10 5//5 7//7
f 5//5 10//10 8//8
f 10//10 9//9 8//8
f 4//4 7//7 5//5
f 6//6 12//12 7//7
f 11//11 12//12 6//6
f 3//3 4//4 5//5
f 13//13 12//12 11//11
f 13//13 10//10 12//12
f 9//9 10//10 13//13
f 12//12 10//10 7//7

