# https://github.com/mikedh/trimesh
v 0.00100000 -0.00000000 0.03420000
v 0.00100000 -0.00000000 0.04180000
v 0.01079240 -0.00564713 0.03420000
v 0.01203298 -0.00221108 0.03420000
v 0.01170250 -0.00343900 0.03816100
v 0.01077060 -0.00563455 0.03844656
v 0.00985245 -0.00510507 0.04180000
v 0.01068358 -0.00366070 0.04180000
v 0.01163000 -0.00207450 0.04006050
v 0.01124836 -0.00010672 0.04180000
v 0.01205782 0.00235550 0.03420000
v 0.01205400 0.00237800 0.03701600
v 0.01080395 0.00565379 0.03420000
v 0.01226400 0.00006400 0.03835700
v 0.01170800 0.00232200 0.03994400
v 0.01079400 0.00564804 0.03845799
v 0.00997274 0.00517444 0.04180000
vn -0.83207302 0.00000009 -0.55466610
vn -0.83207303 0.00000008 0.55466610
vn 0.45568201 -0.52789868 -0.63044882
vn 0.70992140 -0.09392472 -0.69455044
vn 0.94999910 -0.27863941 0.11511937
vn 0.28901550 -0.94327389 0.15262437
vn 0.14970494 -0.83819084 0.46522093
vn 0.69008665 -0.24315632 0.61157640
vn 0.94676349 -0.17825622 0.26422242
vn 0.63070717 0.07181705 0.72634379
vn 0.70370968 0.11070798 -0.69807408
vn 0.97822281 0.20335383 0.04156153
vn 0.54479382 0.42280708 -0.66412132
vn 0.99216600 0.00099086 0.12492256
vn 0.94326983 0.19365441 0.26970355
vn 0.59341664 0.66974572 0.13113711
vn 0.59700034 0.43039927 0.52695821
f 1//1 3//3 2//2
f 1//1 2//2 13//13
f 1//1 13//13 3//3
f 8//8 10//10 17//17
f 13//13 4//4 3//3
f 2//2 17//17 16//16
f 3//3 7//7 2//2
f 3//3 6//6 7//7
f 2//2 16//16 13//13
f 2//2 7//7 17//17
f 13//13 11//11 4//4
f 7//7 8//8 17//17
f 10//10 9//9 14//14
f 8//8 9//9 10//10
f 8//8 5//5 9//9
f 9//9 5//5 14//14
f 8//8 6//6 5//5
f 14//14 4//4 11//11
f 6//6 8//8 7//7
f 14//14 11//11 12//12
f 12//12 11//11 13//13
f 13//13 16//16 12//12
f 4//4 14//14 5//5
f 14//14 12//12 15//15
f 14//14 15//15 10//10
f 3//3 5//5 6//6
f 15//15 12//12 16//16
f 4//4 5//5 3//3
f 17//17 15//15 16//16
f 10//10 15//15 17//17

