# https://github.com/mikedh/trimesh
v 0.00100000 -0.00000000 0.02450000
v 0.00100000 -0.00000000 0.03380000
v 0.01080419 -0.00565392 0.02450000
v 0.01212700 0.00051300 0.02450000
v 0.01079446 -0.00564831 0.03380000
v 0.01213827 -0.00127015 0.03380000
v 0.01080451 0.00565410 0.02450000
v 0.01205837 0.00235230 0.03380000
v 0.01080489 0.00565433 0.03380000
vn -0.83207302 0.00000009 -0.55466610
vn -0.83207302 0.00000008 0.55466610
vn 0.45316986 -0.52530538 -0.62804362
vn 0.72550368 0.02218822 -0.68101638
vn 0.46628458 -0.56958757 0.49073654
vn 0.70940412 -0.07459768 0.69506766
vn 0.45052450 0.53004132 -0.63078389
vn 0.69631839 0.17475480 0.69484960
vn 0.44639211 0.59218775 0.49280491
f 2//2 1//1 3//3
f 2//2 9//9 1//1
f 6//6 8//8 9//9
f 5//5 2//2 3//3
f 2//2 5//5 9//9
f 9//9 7//7 1//1
f 5//5 6//6 9//9
f 3//3 7//7 4//4
f 7//7 8//8 4//4
f 5//5 3//3 6//6
f 6//6 4//4 8//8
f 6//6 3//3 4//4
f 3//3 1//1 7//7
f 8//8 7//7 9//9

