# https://github.com/mikedh/trimesh
v 0.00050000 0.00086603 0.03420000
v 0.00050000 0.00086603 0.04180000
v 0.00050552 0.01191656 0.03420000
v 0.00050553 0.01192499 0.03848783
v 0.00469863 0.01113169 0.03420000
v 0.00267700 0.01172700 0.03845300
v 0.00050502 0.01092163 0.04180000
v 0.00462800 0.01114600 0.03844600
v 0.00543315 0.00978465 0.04158100
v 0.00936383 0.00598947 0.04180000
v 0.00695538 0.00998153 0.03420000
v 0.00877839 0.00848055 0.03420000
v 0.01031178 0.00653740 0.03420000
v 0.00805500 0.00899500 0.03887500
v 0.01030176 0.00653160 0.03848781
v 0.00797111 0.00781040 0.04180000
vn -0.41603651 -0.72059638 -0.55466610
vn -0.41603652 -0.72059638 0.55466610
vn -0.09003526 0.67514158 -0.66446563
vn -0.66749803 0.73368904 0.10568353
vn 0.24297233 0.66924141 -0.69916361
vn 0.14517528 0.94806483 0.25068778
vn -0.11087144 0.53470436 0.73570708
vn 0.37366810 0.91582296 0.14710693
vn 0.33901074 0.65249107 0.60196972
vn 0.80878160 -0.24387905 0.48064455
vn 0.48332005 0.70910357 -0.32604545
vn 0.61126376 0.61022028 -0.32885353
vn 0.68140800 0.10478651 -0.63727040
vn 0.63093455 0.75444014 0.18094658
vn 0.88325730 0.17205856 0.15002296
vn 0.52302384 0.51111789 0.60997238
f 1//1 13//13 2//2
f 1//1 2//2 7//7
f 2//2 10//10 7//7
f 4//4 3//3 1//1
f 3//3 5//5 1//1
f 1//1 7//7 4//4
f 10//10 16//16 7//7
f 5//5 11//11 1//1
f 13//13 15//15 10//10
f 13//13 10//10 2//2
f 12//12 13//13 1//1
f 11//11 12//12 1//1
f 16//16 9//9 7//7
f 6//6 7//7 9//9
f 8//8 6//6 9//9
f 7//7 6//6 4//4
f 5//5 6//6 8//8
f 6//6 3//3 4//4
f 5//5 8//8 11//11
f 12//12 11//11 14//14
f 15//15 13//13 12//12
f 3//3 6//6 5//5
f 14//14 9//9 16//16
f 11//11 8//8 14//14
f 8//8 9//9 14//14
f 12//12 14//14 15//15
f 14//14 16//16 15//15
f 16//16 10//10 15//15

