# https://github.com/mikedh/trimesh
v -0.01239650 -0.00364975 -0.00397950
v -0.00258650 -0.01298350 0.02088575
v -0.01200750 0.00787175 0.01990525
v 0.00001550 0.01397550 -0.00396900
v 0.00835300 -0.01397900 -0.00396200
v 0.01628900 0.00298500 -0.00397950
v 0.01232475 -0.00329300 0.02185250
v 0.01148875 0.01070200 0.01990975
vn -0.54860172 -0.29329501 -0.64768790
vn -0.14681581 -0.71456322 0.53115229
vn -0.43648365 0.33909210 0.66448331
vn -0.01376714 0.71307811 -0.62823808
vn 0.46144539 -0.56028337 -0.64526973
vn 0.71388163 0.13861664 -0.66071904
vn 0.54062825 -0.18739784 0.68389546
vn 0.53377824 0.62740802 0.42648270
f 3//3 2//2 7//7
f 2//2 1//1 5//5
f 5//5 1//1 4//4
f 1//1 2//2 3//3
f 4//4 1//1 3//3
f 4//4 3//3 8//8
f 7//7 5//5 6//6
f 2//2 5//5 7//7
f 7//7 6//6 8//8
f 5//5 4//4 6//6
f 6//6 4//4 8//8
f 8//8 3//3 7//7

