# https://github.com/mikedh/trimesh
v -0.01032547 -0.00537785 0.03420000
v -0.01146610 -0.00218772 0.03420000
v -0.01118800 -0.00313000 0.03856550
v -0.00938879 -0.00483768 0.04180000
v -0.01077688 -0.00107471 0.04166850
v -0.01135127 0.00269598 0.03420000
v -0.01034669 0.00539009 0.03420000
v -0.01165600 0.00021400 0.03857300
v -0.01129900 0.00285800 0.03850600
v -0.01033893 0.00538562 0.03839563
v -0.01031312 0.00287423 0.04180000
v -0.00939359 0.00484045 0.04180000
v -0.00100000 0.00000000 0.03420000
v -0.00100000 0.00000000 0.04180000
vn -0.38653185 -0.73506026 -0.26404709
vn -0.70824928 -0.09617216 -0.69503386
vn -0.94853926 -0.26669605 0.14382025
vn -0.38089948 -0.52345626 0.62773964
vn -0.73405979 -0.09661974 0.60194274
vn -0.69073001 0.18377578 -0.69520377
vn -0.42278511 0.56190154 -0.64061533
vn -0.98840672 0.04009156 0.14644049
vn -0.96461825 0.22001904 0.14526958
vn -0.59779650 0.66884568 0.15101481
vn -0.70268247 0.17093183 0.61894090
vn -0.17850379 0.82290609 0.48412516
vn 0.83207302 -0.00000004 -0.55466610
vn 0.83207303 -0.00000004 0.55466610
f 13//13 14//14 1//1
f 7//7 12//12 14//14
f 7//7 10//10 12//12
f 1//1 2//2 6//6
f 12//12 11//11 4//4
f 13//13 1//1 7//7
f 1//1 6//6 7//7
f 13//13 7//7 14//14
f 14//14 12//12 4//4
f 14//14 4//4 1//1
f 11//11 5//5 4//4
f 8//8 3//3 5//5
f 2//2 8//8 6//6
f 3//3 4//4 5//5
f 6//6 8//8 9//9
f 6//6 10//10 7//7
f 6//6 9//9 10//10
f 8//8 5//5 9//9
f 3//3 1//1 4//4
f 2//2 3//3 8//8
f 9//9 5//5 11//11
f 10//10 9//9 11//11
f 11//11 12//12 10//10
f 1//1 3//3 2//2

