# https://github.com/mikedh/trimesh
v -0.00988036 -0.00628803 0.02450000
v -0.00725950 -0.00925450 0.02450000
v -0.00986612 -0.00627980 0.03380000
v -0.00520164 -0.01058552 0.03380000
v -0.00326200 -0.01158650 0.02450000
v -0.00050552 -0.01190815 0.02450000
v -0.00050552 -0.01190757 0.03380000
v -0.00050000 -0.00086603 0.02450000
v -0.00050000 -0.00086603 0.03380000
vn -0.69526676 -0.08984612 -0.63210185
vn -0.45893933 -0.56128170 -0.68465497
vn -0.59263281 -0.30070395 0.66734784
vn -0.35326888 -0.62506978 0.69338998
vn -0.20886890 -0.69528307 -0.68490581
vn 0.60625934 -0.67866733 -0.28689602
vn 0.22269120 -0.65638670 0.63513725
vn 0.41603654 0.72059636 -0.55466610
vn 0.41603655 0.72059636 0.55466610
f 9//9 6//6 8//8
f 9//9 8//8 1//1
f 9//9 7//7 6//6
f 4//4 7//7 9//9
f 3//3 4//4 9//9
f 1//1 3//3 9//9
f 2//2 1//1 8//8
f 4//4 2//2 5//5
f 2//2 8//8 5//5
f 5//5 6//6 7//7
f 6//6 5//5 8//8
f 4//4 5//5 7//7
f 2//2 4//4 3//3
f 3//3 1//1 2//2

