# https://github.com/mikedh/trimesh
v 0.00050487 -0.01062343 0.04220000
v 0.00321928 -0.01036819 0.04220000
v 0.00310300 -0.00953300 0.04368700
v 0.00050290 -0.00667239 0.04680000
v 0.00294059 -0.00643028 0.04680000
v 0.00050000 -0.00086603 0.04220000
v 0.00050000 -0.00086603 0.04680000
v 0.00647474 -0.00877397 0.04220000
v 0.00498900 -0.00734800 0.04531500
v 0.00918157 -0.00588412 0.04220000
v 0.00783567 -0.00510617 0.04456261
v 0.00592336 -0.00400082 0.04680000
vn -0.60040378 -0.67140208 -0.00363665
vn 0.16377889 -0.85520836 -0.48598698
vn 0.15143831 -0.74424230 0.63850749
vn -0.67003380 -0.34997630 0.63682202
vn 0.13075160 -0.36064467 0.92297224
vn -0.41603645 0.72059642 -0.55466610
vn -0.41603644 0.72059642 0.55466610
vn 0.43733778 -0.75450409 -0.48705658
vn 0.46560042 -0.61838492 0.62616862
vn 0.72127050 -0.39130735 -0.47528850
vn 0.82802198 0.26409855 0.49104332
vn 0.42252367 0.04879806 0.83039447
f 7//7 4//4 12//12
f 11//11 10//10 6//6
f 10//10 2//2 1//1
f 6//6 10//10 1//1
f 1//1 4//4 7//7
f 10//10 8//8 2//2
f 6//6 12//12 11//11
f 6//6 7//7 12//12
f 4//4 5//5 12//12
f 6//6 1//1 7//7
f 5//5 9//9 12//12
f 5//5 3//3 9//9
f 3//3 5//5 4//4
f 3//3 8//8 9//9
f 1//1 3//3 4//4
f 3//3 2//2 8//8
f 9//9 8//8 10//10
f 9//9 10//10 11//11
f 3//3 1//1 2//2
f 12//12 9//9 11//11

