# https://github.com/mikedh/trimesh
v 0.00050000 0.00086603 0.04220000
v 0.00050000 0.00086603 0.04680000
v 0.00557404 0.00547867 0.04620350
v 0.00050494 0.01075247 0.04220000
v 0.00529225 0.00943319 0.04220000
v 0.00315800 0.00951400 0.04375700
v 0.00050294 0.00674994 0.04680000
v 0.00092397 0.00858786 0.04527398
v 0.00355400 0.00783400 0.04544000
v 0.00858377 0.00553858 0.04363268
v 0.00572972 0.00388889 0.04680000
v 0.00667800 0.00765900 0.04368000
v 0.00919393 0.00589126 0.04220000
vn -0.41603652 -0.72059637 -0.55466610
vn -0.41603653 -0.72059637 0.55466610
vn 0.36184914 0.38073356 0.82511313
vn -0.16507760 0.78246599 -0.25637843
vn 0.40962717 0.77159749 -0.48481286
vn 0.25055849 0.79431868 0.55342414
vn -0.27968165 0.34649415 0.79234207
vn -0.31360956 0.62144257 0.58736828
vn 0.30110598 0.64321565 0.70399490
vn 0.83765416 -0.28842436 0.45591784
vn 0.63032993 -0.39066028 0.65901472
vn 0.51829048 0.64920111 0.55669820
vn 0.76661432 0.25636716 -0.46191364
f 1//1 2//2 4//4
f 11//11 2//2 1//1
f 2//2 11//11 7//7
f 10//10 11//11 1//1
f 11//11 3//3 7//7
f 4//4 5//5 13//13
f 1//1 4//4 13//13
f 10//10 1//1 13//13
f 2//2 7//7 4//4
f 7//7 8//8 4//4
f 8//8 7//7 9//9
f 6//6 9//9 12//12
f 3//3 9//9 7//7
f 6//6 8//8 9//9
f 6//6 5//5 4//4
f 6//6 4//4 8//8
f 10//10 3//3 11//11
f 12//12 13//13 5//5
f 12//12 5//5 6//6
f 12//12 10//10 13//13
f 3//3 10//10 12//12
f 9//9 3//3 12//12

