# https://github.com/mikedh/trimesh
v -0.00986318 0.00627810 0.03420000
v -0.00985546 0.00627364 0.03837804
v -0.00896426 0.00575851 0.04180000
v -0.00818038 0.00846564 0.03420000
v -0.00636421 0.00998580 0.03420000
v -0.00818800 0.00844600 0.03822200
v -0.00679377 0.00840789 0.04170600
v -0.00624200 0.00978600 0.03929400
v -0.00050000 0.00086603 0.03420000
v -0.00050000 0.00086603 0.04180000
v -0.00319448 0.01140412 0.03420000
v -0.00050548 0.01184231 0.03420000
v -0.00050550 0.01188153 0.03831045
v -0.00442200 0.01101300 0.03803900
v -0.00313221 0.01044826 0.04180000
v -0.00050496 0.01080519 0.04180000
vn -0.69459871 0.09312113 -0.63202017
vn -0.88423330 0.15257979 0.14316882
vn -0.67866323 0.29191647 0.52840647
vn -0.53107479 0.48139036 -0.69637189
vn -0.49498682 0.70122785 -0.32948543
vn -0.70187703 0.69985657 0.13254972
vn -0.46495177 0.56493913 0.61101145
vn -0.53217689 0.81643777 0.22409178
vn 0.41603647 -0.72059640 -0.55466610
vn 0.41603647 -0.72059640 0.55466610
vn -0.23320745 0.67554010 -0.69430961
vn 0.25865510 0.64848711 -0.64468041
vn 0.22214461 0.86950643 0.12495627
vn -0.38560863 0.91456718 0.12195429
vn -0.22697708 0.56091988 0.79285316
vn 0.45324641 0.62492964 0.48405197
f 4//4 9//9 1//1
f 10//10 2//2 1//1
f 10//10 3//3 2//2
f 16//16 15//15 3//3
f 9//9 13//13 16//16
f 9//9 12//12 13//13
f 11//11 12//12 9//9
f 5//5 11//11 9//9
f 16//16 10//10 9//9
f 10//10 16//16 3//3
f 4//4 5//5 9//9
f 9//9 10//10 1//1
f 15//15 7//7 3//3
f 5//5 6//6 8//8
f 14//14 5//5 8//8
f 7//7 15//15 8//8
f 8//8 6//6 7//7
f 2//2 3//3 7//7
f 6//6 2//2 7//7
f 14//14 11//11 5//5
f 13//13 11//11 14//14
f 4//4 6//6 5//5
f 4//4 2//2 6//6
f 2//2 4//4 1//1
f 11//11 13//13 12//12
f 8//8 15//15 14//14
f 15//15 13//13 14//14
f 13//13 15//15 16//16

