# https://github.com/mikedh/trimesh
v -0.00875683 0.00563861 0.04220000
v -0.00681616 0.00451687 0.04542426
v -0.00529636 0.00363840 0.04680000
v -0.00691665 0.00737079 0.04290400
v -0.00449450 0.00779200 0.04466250
v -0.00050000 0.00086603 0.04220000
v -0.00355932 0.00569785 0.04680000
v -0.00050000 0.00086603 0.04680000
v -0.00320127 0.01023497 0.04220000
v -0.00050488 0.01063605 0.04220000
v -0.00223700 0.00805100 0.04553100
v -0.00050296 0.00679565 0.04680000
vn -0.81737799 0.18220433 -0.44443920
vn -0.79984374 -0.30547060 0.50816862
vn -0.55145819 -0.39403840 0.73527382
vn -0.59093834 0.60923972 0.03641161
vn -0.41557586 0.64114904 0.63406031
vn 0.41603646 -0.72059641 -0.55466610
vn -0.19688330 0.28762380 0.93533671
vn 0.41603647 -0.72059641 0.55466610
vn -0.26163931 0.84407439 -0.46562285
vn 0.41350152 0.72522913 0.00613639
vn -0.20045240 0.67382585 0.71118039
vn 0.47613448 0.42432402 0.67683369
f 8//8 12//12 3//3
f 8//8 2//2 1//1
f 10//10 12//12 8//8
f 1//1 9//9 10//10
f 1//1 4//4 9//9
f 12//12 7//7 3//3
f 8//8 3//3 2//2
f 6//6 10//10 8//8
f 6//6 8//8 1//1
f 6//6 1//1 10//10
f 2//2 5//5 4//4
f 4//4 5//5 9//9
f 10//10 9//9 5//5
f 10//10 5//5 11//11
f 1//1 2//2 4//4
f 7//7 11//11 5//5
f 5//5 2//2 7//7
f 7//7 2//2 3//3
f 11//11 7//7 12//12
f 11//11 12//12 10//10

