# https://github.com/mikedh/trimesh
v 0.00050554 -0.01195930 0.03420000
v 0.00322450 -0.01151250 0.03810100
v 0.00492343 -0.01106567 0.03420000
v 0.00050552 -0.01191722 0.03837686
v 0.00050498 -0.01082779 0.04180000
v 0.00325055 -0.01059286 0.04180000
v 0.00050000 -0.00086603 0.03420000
v 0.00050000 -0.00086603 0.04180000
v 0.00793146 -0.00912580 0.03420000
v 0.01032360 -0.00654423 0.03420000
v 0.01032037 -0.00654237 0.03840858
v 0.00706600 -0.00979000 0.03880800
v 0.00644221 -0.00913412 0.04168600
v 0.00883600 -0.00838300 0.03828000
v 0.00872225 -0.00695274 0.04180000
v 0.00933911 -0.00597518 0.04180000
vn -0.22413298 -0.65802519 -0.63355966
vn 0.24510406 -0.95769586 0.11960235
vn 0.34876225 -0.78132398 -0.32756094
vn -0.64816471 -0.74525037 0.14731593
vn -0.62795567 -0.56261994 0.48303401
vn 0.16968070 -0.70848201 0.60970357
vn -0.41603644 0.72059642 -0.55466610
vn -0.41603645 0.72059641 0.55466610
vn 0.44587485 -0.56517281 -0.69186897
vn 0.67967529 -0.10324391 -0.63774145
vn 0.89229959 -0.13765598 0.11069572
vn 0.55359643 -0.81560109 0.16830288
vn 0.39122886 -0.61154855 0.61441729
vn 0.69921738 -0.70341681 0.12767081
vn 0.56563798 -0.46401344 0.61025583
vn 0.80235196 0.28370858 0.46702871
f 8//8 5//5 16//16
f 8//8 16//16 11//11
f 1//1 7//7 3//3
f 8//8 11//11 10//10
f 7//7 10//10 9//9
f 7//7 9//9 3//3
f 1//1 4//4 5//5
f 5//5 15//15 16//16
f 6//6 13//13 15//15
f 7//7 8//8 10//10
f 7//7 1//1 8//8
f 1//1 5//5 8//8
f 5//5 6//6 15//15
f 6//6 2//2 12//12
f 2//2 3//3 12//12
f 9//9 12//12 3//3
f 12//12 9//9 14//14
f 14//14 9//9 10//10
f 14//14 10//10 11//11
f 13//13 6//6 12//12
f 13//13 12//12 14//14
f 6//6 5//5 4//4
f 6//6 4//4 2//2
f 15//15 14//14 11//11
f 15//15 13//13 14//14
f 16//16 15//15 11//11
f 4//4 1//1 2//2
f 2//2 1//1 3//3

