# https://github.com/mikedh/trimesh
v -0.00547203 -0.00179947 0.04720000
v -0.00347147 -0.00378703 0.04763150
v -0.00095821 -0.00611857 0.04720000
v -0.00133800 -0.00436500 0.04805200
v -0.00178900 -0.00110900 0.04875300
v -0.00555005 0.00202721 0.04720000
v -0.00434000 0.00031800 0.04806600
v -0.00203771 0.00561388 0.04720000
v -0.00054500 0.00084100 0.04884600
v -0.00229500 0.00382500 0.04810700
v 0.00266363 -0.00576837 0.04720000
v 0.00597494 -0.00215262 0.04720000
v 0.00185900 -0.00162400 0.04881900
v 0.00440700 -0.00183900 0.04813700
v 0.00308010 0.00541721 0.04720000
v 0.00612782 0.00225159 0.04720000
v 0.00457000 0.00159600 0.04807200
v 0.00189300 0.00310150 0.04843700
vn -0.93369416 -0.24698318 -0.21768751
vn -0.45777413 -0.49304651 0.35133094
vn -0.05025148 -0.97035504 -0.21378343
vn -0.11800777 -0.35398354 0.92777682
vn -0.16625039 -0.09984226 0.98101597
vn -0.87084794 0.43742011 -0.20807778
vn -0.38141800 0.03144688 0.92386763
vn -0.32326533 0.88760562 -0.20888235
vn -0.07249202 0.07244072 0.98963240
vn -0.20802733 0.31384310 0.92640549
vn 0.25463875 -0.63359726 0.35671934
vn 0.85124657 -0.34370911 -0.21425966
vn 0.12254034 -0.13262737 0.98356182
vn 0.34351666 -0.14321742 0.92816220
vn 0.45541342 0.83088914 -0.21341193
vn 0.81386726 0.51572668 -0.22476429
vn 0.34807748 0.13728482 0.92735912
vn 0.12934133 0.25723656 0.95280855
f 3//3 2//2 1//1
f 16//16 12//12 8//8
f 16//16 8//8 15//15
f 11//11 1//1 6//6
f 11//11 3//3 1//1
f 12//12 11//11 8//8
f 8//8 11//11 6//6
f 5//5 4//4 13//13
f 5//5 13//13 9//9
f 1//1 7//7 6//6
f 10//10 6//6 7//7
f 6//6 10//10 8//8
f 2//2 4//4 5//5
f 18//18 8//8 10//10
f 10//10 7//7 9//9
f 7//7 5//5 9//9
f 10//10 9//9 18//18
f 7//7 2//2 5//5
f 3//3 11//11 4//4
f 11//11 12//12 14//14
f 12//12 17//17 14//14
f 13//13 4//4 11//11
f 13//13 11//11 14//14
f 13//13 14//14 17//17
f 3//3 4//4 2//2
f 8//8 18//18 15//15
f 7//7 1//1 2//2
f 17//17 12//12 16//16
f 16//16 18//18 17//17
f 15//15 18//18 16//16
f 18//18 9//9 13//13
f 18//18 13//13 17//17

