# https://github.com/mikedh/trimesh
v 0.00050555 -0.01197926 0.02450000
v 0.00377500 -0.01143400 0.02450000
v 0.00050554 -0.01196016 0.03380000
v 0.00597930 -0.01045734 0.03380000
v 0.00050000 -0.00086603 0.02450000
v 0.00050000 -0.00086603 0.03380000
v 0.00788850 -0.00921200 0.02450000
v 0.01032221 -0.00654343 0.02450000
v 0.00882137 -0.00841096 0.03380000
v 0.01032354 -0.00654420 0.03380000
vn -0.61213936 -0.67339941 -0.28563894
vn 0.21262065 -0.69299158 -0.68511287
vn -0.21604598 -0.65180750 0.63759848
vn 0.36111801 -0.61930597 0.69440474
vn -0.41603645 0.72059641 -0.55466610
vn -0.41603645 0.72059641 0.55466610
vn 0.46102158 -0.55970697 -0.68492789
vn 0.69428709 -0.09196677 -0.63258116
vn 0.48817534 -0.51497422 0.70198744
vn 0.69404219 -0.09266394 0.63239658
f 6//6 5//5 1//1
f 9//9 10//10 6//6
f 10//10 8//8 5//5
f 6//6 10//10 5//5
f 4//4 9//9 6//6
f 3//3 6//6 1//1
f 3//3 4//4 6//6
f 3//3 2//2 4//4
f 1//1 5//5 7//7
f 7//7 4//4 2//2
f 8//8 9//9 7//7
f 4//4 7//7 9//9
f 9//9 8//8 10//10
f 7//7 5//5 8//8
f 1//1 7//7 2//2
f 2//2 3//3 1//1

